<svg width="90" height="41" viewBox="0 0 90 41" fill="none" xmlns="http://www.w3.org/2000/svg">
<g clip-path="url(#clip0_119_2265)">
<rect width="93" height="52" transform="translate(-1.5 -5.5)" fill="white"/>
<path d="M43.9439 15.9668V27.339H41.8386V18.249H41.7803L39.5 19.8816V17.7493L41.965 15.9668H43.9439Z" fill="#320064"/>
<path d="M56.2363 27.339H52.7065V15.9668H56.2655C57.2671 15.9668 58.1293 16.1945 58.8521 16.6498C59.5749 17.1015 60.1308 17.7511 60.5198 18.5989C60.912 19.4466 61.1081 20.4609 61.1081 21.6418C61.1081 22.8264 60.912 23.8444 60.5198 24.6958C60.1308 25.5473 59.5717 26.2006 58.8424 26.656C58.1163 27.1113 57.2476 27.339 56.2363 27.339ZM54.8117 25.2789H56.1488C56.7711 25.2789 57.2946 25.153 57.7192 24.9013C58.1471 24.6459 58.468 24.2516 58.6819 23.7185C58.8991 23.1818 59.0077 22.4895 59.0077 21.6418C59.0077 20.8015 58.8991 20.1148 58.6819 19.5817C58.468 19.0486 58.1487 18.6562 57.7241 18.4045C57.2995 18.1528 56.776 18.0269 56.1537 18.0269H54.8117V25.2789Z" fill="#320064"/>
<path d="M62.6287 27.339V18.8099H64.6367V20.298H64.7145C64.8506 19.7686 65.0791 19.3688 65.4 19.0986C65.7209 18.8247 66.0904 18.6877 66.5086 18.6877C66.6123 18.6877 66.7241 18.6951 66.844 18.7099C66.964 18.7247 67.0693 18.7451 67.1601 18.771V20.87C67.0628 20.8366 66.9283 20.807 66.7565 20.7811C66.5847 20.7552 66.4275 20.7422 66.2849 20.7422C65.9802 20.7422 65.7079 20.8181 65.4681 20.9699C65.2315 21.118 65.0435 21.3253 64.9041 21.5918C64.768 21.8584 64.6999 22.1656 64.6999 22.5136V27.339H62.6287Z" fill="#320064"/>
<path d="M70.1466 27.5C69.6701 27.5 69.2455 27.4056 68.8727 27.2168C68.5 27.0243 68.205 26.7411 67.9878 26.3672C67.7739 25.9896 67.6669 25.5195 67.6669 24.9568C67.6669 24.483 67.7431 24.085 67.8955 23.763C68.0478 23.4409 68.2552 23.1818 68.5178 22.9856C68.7803 22.7894 69.0785 22.6413 69.4124 22.5413C69.7495 22.4414 70.1028 22.3711 70.4723 22.3303C70.9067 22.2785 71.2567 22.2304 71.5225 22.186C71.7883 22.1378 71.9812 22.0675 72.1011 21.975C72.221 21.8824 72.281 21.7454 72.281 21.5641V21.5307C72.281 21.1791 72.1838 20.907 71.9893 20.7145C71.798 20.522 71.5258 20.4257 71.1725 20.4257C70.7997 20.4257 70.5031 20.5201 70.2827 20.7089C70.0623 20.894 69.9164 21.1272 69.8451 21.4086L67.9295 21.2309C68.0267 20.7126 68.218 20.2647 68.5032 19.8871C68.7884 19.5058 69.1563 19.2134 69.6069 19.0098C70.0607 18.8025 70.5858 18.6988 71.1822 18.6988C71.5971 18.6988 71.9941 18.7543 72.3734 18.8654C72.7559 18.9765 73.0946 19.1486 73.3895 19.3818C73.6877 19.615 73.9227 19.9149 74.0945 20.2814C74.2663 20.6441 74.3522 21.0791 74.3522 21.5863V27.339H72.388V26.1562H72.3296C72.2097 26.4228 72.0492 26.6578 71.8483 26.8614C71.6473 27.0613 71.4058 27.2187 71.1238 27.3334C70.8418 27.4445 70.5161 27.5 70.1466 27.5ZM70.7397 25.8675C71.0444 25.8675 71.3135 25.799 71.5468 25.662C71.7802 25.5214 71.9633 25.3326 72.0962 25.0956C72.2291 24.8587 72.2956 24.5903 72.2956 24.2905V23.3854C72.2308 23.4335 72.1416 23.4779 72.0282 23.5186C71.918 23.5557 71.7932 23.5908 71.6538 23.6241C71.5144 23.6538 71.375 23.6815 71.2357 23.7074C71.0963 23.7296 70.9699 23.75 70.8564 23.7685C70.6133 23.8092 70.401 23.874 70.2195 23.9629C70.038 24.0517 69.897 24.172 69.7965 24.3238C69.696 24.4719 69.6458 24.657 69.6458 24.8791C69.6458 25.2011 69.7479 25.4473 69.9521 25.6176C70.1595 25.7842 70.4221 25.8675 70.7397 25.8675Z" fill="#320064"/>
<path d="M77.4323 27.339L75.4 18.8099H77.4955L78.6527 24.5404H78.7208L79.9265 18.8099H81.9832L83.2084 24.507H83.2716L84.4093 18.8099H86.5L84.4725 27.339H82.2798L80.9962 21.975H80.9038L79.6202 27.339H77.4323Z" fill="#320064"/>
<path d="M47.5366 14.9989C47.5196 14.8029 47.4466 14.6507 47.3175 14.5422C47.1885 14.4337 47.0134 14.3794 46.7921 14.3794C46.6418 14.3794 46.5149 14.4037 46.4114 14.4523C46.3079 14.4993 46.2284 14.5649 46.1731 14.6491C46.1192 14.7333 46.0923 14.8289 46.0923 14.9357C46.0895 15.0248 46.1058 15.1026 46.1412 15.169C46.1781 15.2354 46.2284 15.2929 46.2923 15.3414C46.3561 15.3884 46.4298 15.4297 46.5135 15.4653C46.5971 15.4994 46.6865 15.5285 46.7815 15.5528L47.1729 15.6597C47.3629 15.7083 47.5373 15.7731 47.6962 15.854C47.855 15.935 47.9925 16.0346 48.1088 16.1529C48.2251 16.2711 48.3152 16.4104 48.379 16.5707C48.4442 16.731 48.4775 16.9149 48.4789 17.1222C48.4775 17.4266 48.4095 17.6906 48.2747 17.9141C48.1414 18.136 47.9486 18.3085 47.6962 18.4316C47.4452 18.553 47.1424 18.6138 46.7879 18.6138C46.4362 18.6138 46.1299 18.5522 45.869 18.4292C45.6094 18.3061 45.4067 18.1239 45.2606 17.8825C45.1159 17.6396 45.0401 17.3392 45.033 16.9813H45.9243C45.9342 17.1481 45.976 17.2874 46.0498 17.3991C46.1249 17.5092 46.2249 17.5926 46.3497 17.6493C46.4759 17.7044 46.6184 17.7319 46.7772 17.7319C46.9332 17.7319 47.0687 17.706 47.1835 17.6542C47.2998 17.6024 47.3899 17.5303 47.4537 17.438C47.5175 17.3457 47.5494 17.2396 47.5494 17.1197C47.5494 17.008 47.5203 16.914 47.4622 16.8379C47.4055 16.7618 47.3218 16.697 47.2112 16.6436C47.102 16.5901 46.968 16.5415 46.8091 16.4978L46.3348 16.3618C45.9675 16.2597 45.6775 16.1002 45.4648 15.8832C45.2521 15.6662 45.1464 15.3738 45.1479 15.0062C45.1464 14.705 45.2166 14.4418 45.3584 14.2167C45.5017 13.9915 45.6981 13.8158 45.9477 13.6895C46.1972 13.5632 46.4809 13.5 46.7985 13.5C47.1218 13.5 47.404 13.5632 47.6451 13.6895C47.8876 13.8158 48.0762 13.9915 48.2109 14.2167C48.3456 14.4418 48.4151 14.7025 48.4194 14.9989H47.5366Z" fill="#320064"/>
<path d="M48.9326 14.4353V13.568H52.5104V14.4353H51.1767V18.5433H50.2663V14.4353H48.9326Z" fill="#320064"/>
<rect width="23.3987" height="35.2532" transform="matrix(0.95261 -0.304194 0.360539 0.932744 0.5 7.61774)" fill="#320064"/>
<ellipse cx="8.35662" cy="9.19328" rx="8.35662" ry="9.19328" transform="matrix(0.948085 -0.318018 0.376202 0.926538 6.62842 15.3682)" fill="white"/>
</g>
<defs>
<clipPath id="clip0_119_2265">
<rect width="90" height="41" fill="white"/>
</clipPath>
</defs>
</svg>
